<svg width="36" height="36" viewBox="0 0 36 36" fill="none" xmlns="http://www.w3.org/2000/svg">
<rect x="1" y="1" width="34" height="34" rx="17" stroke="#46B1F0" stroke-width="2"/>
<path d="M25.8948 25.0658L22.5395 21.7105C23.0921 21.0658 23.5198 20.3421 23.8224 19.5395C24.125 18.7369 24.2763 17.8816 24.2763 16.9737C24.2763 15.9737 24.0921 15.0263 23.7237 14.1316C23.3553 13.25 22.852 12.4836 22.2138 11.8323C21.5757 11.1809 20.8224 10.6645 19.954 10.2829C19.0987 9.90133 18.1842 9.71054 17.2105 9.71054C16.2237 9.71054 15.2961 9.90133 14.4277 10.2829C13.5724 10.6645 12.8224 11.1809 12.1777 11.8323C11.5329 12.4836 11.0263 13.25 10.6579 14.1316C10.2895 15.0132 10.1053 15.9605 10.1053 16.9737C10.1053 17.9737 10.2895 18.9211 10.6579 19.8158C11.0263 20.6974 11.5329 21.4638 12.1777 22.1151C12.8224 22.7665 13.5724 23.2829 14.4277 23.6645C15.2961 24.0461 16.2237 24.2369 17.2105 24.2369C17.9605 24.2369 18.6941 24.1217 19.4112 23.8915C20.1283 23.6612 20.7632 23.3158 21.3158 22.8553L24.7895 26.2895L25.8948 25.0658ZM10.9342 16.9737C10.9342 16.0921 11.0987 15.2632 11.4277 14.4869C11.7566 13.7105 12.204 13.0362 12.7698 12.4638C13.3355 11.8915 14 11.4408 14.7632 11.1119C15.5263 10.7829 16.3421 10.6184 17.2105 10.6184C18.0658 10.6184 18.875 10.7829 19.6382 11.1119C20.3882 11.4408 21.0461 11.8915 21.6119 12.4638C22.1777 13.0362 22.625 13.7105 22.954 14.4869C23.2829 15.25 23.4474 16.079 23.4474 16.9737C23.4474 17.8553 23.2829 18.6842 22.954 19.4605C22.625 20.2369 22.1777 20.9112 21.6119 21.4836C21.0461 22.0559 20.3882 22.5066 19.6382 22.8355C18.875 23.1645 18.0658 23.329 17.2105 23.329C16.3421 23.329 15.5263 23.1645 14.7632 22.8355C14 22.5066 13.3355 22.0559 12.7698 21.4836C12.204 20.9112 11.7566 20.2369 11.4277 19.4605C11.0987 18.6974 10.9342 17.8684 10.9342 16.9737Z" fill="#46B1F0" stroke="#46B1F0"/>
</svg>
