<svg width="36" height="36" viewBox="0 0 36 36" fill="none" xmlns="http://www.w3.org/2000/svg">
<rect width="36" height="36" rx="18" fill="#46B1F0"/>
<path d="M17.9192 11.7308C18.3489 11.2438 18.8753 10.7676 19.4983 10.3021C20.1214 9.83657 20.8411 9.53937 21.6575 9.41046C22.4023 9.3102 23.0898 9.33885 23.72 9.4964C24.3359 9.65395 24.8909 9.9046 25.385 10.2484C25.8792 10.5921 26.291 11.0146 26.6204 11.5159C26.9641 12.0029 27.2148 12.5185 27.3723 13.0628C27.5442 13.6644 27.6266 14.3375 27.6194 15.0823C27.6123 15.8271 27.5013 16.5146 27.2864 17.1448C26.9713 17.9612 26.5631 18.6989 26.0618 19.3577C25.5462 20.0166 24.9804 20.636 24.3645 21.2161C23.7486 21.7962 23.1113 22.3512 22.4524 22.8812C21.7936 23.4111 21.1562 23.9482 20.5403 24.4925C20.3971 24.6644 20.2216 24.8506 20.0139 25.0511C19.8063 25.2516 19.5807 25.4378 19.3372 25.6097C19.194 25.7529 19.0078 25.9678 18.7786 26.2542C18.5494 26.5407 18.3059 26.6839 18.0481 26.6839C17.819 26.6839 17.6184 26.5944 17.4466 26.4153C17.2747 26.2363 17.1028 26.0394 16.9309 25.8245C16.3867 25.223 15.7923 24.6572 15.1477 24.1273C14.5175 23.5973 13.8802 23.0674 13.2356 22.5374C12.5911 22.0075 11.9752 21.456 11.388 20.8831C10.7864 20.3102 10.2565 19.68 9.79813 18.9925C9.55464 18.6344 9.31831 18.2191 9.08914 17.7464C8.8743 17.2594 8.70242 16.7402 8.57352 16.1888C8.44461 15.6373 8.38016 15.068 8.38016 14.4808C8.38016 13.8935 8.48042 13.3063 8.68094 12.7191C8.99604 11.8024 9.54031 11.0182 10.3138 10.3665C11.0872 9.71482 12.0755 9.36749 13.2786 9.32452C14.4388 9.26723 15.3626 9.50356 16.0501 10.0335C16.7376 10.5635 17.3606 11.1292 17.9192 11.7308ZM23.8489 19.1214C24.2929 18.6774 24.7262 18.151 25.1487 17.5423C25.5712 16.9336 25.8398 16.2425 25.9544 15.4691C26.0546 14.5524 25.9365 13.7467 25.5999 13.0521C25.2633 12.3574 24.7942 11.8454 24.1927 11.5159C23.9778 11.4157 23.6914 11.319 23.3333 11.2259C22.9752 11.1328 22.6028 11.0862 22.2161 11.0862C21.7291 11.1292 21.2708 11.2868 20.8411 11.5589C20.4114 11.831 20.0677 12.0745 19.8098 12.2894C19.6809 12.3896 19.5413 12.5185 19.3909 12.6761C19.2405 12.8336 19.0794 12.9912 18.9075 13.1487C18.7356 13.3206 18.5996 13.4925 18.4993 13.6644C18.399 13.8362 18.2057 13.9222 17.9192 13.9222C17.7044 13.9222 17.5146 13.8362 17.3499 13.6644C17.1852 13.4925 17.0455 13.3206 16.9309 13.1487C16.7591 13.0055 16.5979 12.8551 16.4475 12.6976C16.2972 12.54 16.1575 12.404 16.0286 12.2894C15.7135 12.0172 15.3554 11.7487 14.9544 11.4837C14.5533 11.2187 14.0807 11.0862 13.5364 11.0862C12.4908 11.1292 11.6529 11.4801 11.0227 12.139C10.3925 12.7978 10.0559 13.6214 10.013 14.6097C9.95568 15.3115 10.038 15.9453 10.26 16.511C10.482 17.0768 10.7578 17.5745 11.0872 18.0042C11.5312 18.6344 12.0468 19.2288 12.6341 19.7874C13.2213 20.3317 13.8264 20.8652 14.4495 21.388C15.0725 21.9108 15.692 22.4372 16.3079 22.9671C16.9095 23.4827 17.4466 24.0342 17.9192 24.6214C18.3632 24.1344 18.8287 23.6618 19.3157 23.2034C19.8027 22.7594 20.3004 22.3154 20.8089 21.8714C21.3173 21.4274 21.8294 20.9834 22.345 20.5394C22.8463 20.0954 23.3476 19.6227 23.8489 19.1214Z" fill="#F7F7F7"/>
</svg>
