<svg width="16" height="16" viewBox="0 0 16 16" fill="none" xmlns="http://www.w3.org/2000/svg">
<rect width="16" height="16" rx="8" fill="#333E48"/>
<path d="M6.88889 12.8571H9.11111C9.11111 13.4857 8.61111 14 8 14C7.38889 14 6.88889 13.4857 6.88889 12.8571ZM13 11.7143V12.2857H3V11.7143L4.11111 10.5714V7.14286C4.11111 5.37143 5.22222 3.82857 6.88889 3.31429V3.14286C6.88889 2.51429 7.38889 2 8 2C8.61111 2 9.11111 2.51429 9.11111 3.14286V3.31429C10.7778 3.82857 11.8889 5.37143 11.8889 7.14286V10.5714L13 11.7143ZM10.7778 7.14286C10.7778 5.54286 9.55556 4.28571 8 4.28571C6.44444 4.28571 5.22222 5.54286 5.22222 7.14286V11.1429H10.7778V7.14286Z" fill="#F7F7F7"/>
</svg>
