<svg width="36" height="36" viewBox="0 0 36 36" fill="none" xmlns="http://www.w3.org/2000/svg">
<rect width="36" height="36" rx="18" fill="#46B1F0"/>
<path d="M27 27.7449C26.6825 27.7959 26.3858 27.8257 26.11 27.8342C25.8343 27.8427 25.5292 27.8469 25.195 27.8469C25.195 26.7585 25.0028 25.8104 24.6184 25.0026C24.234 24.1947 23.7911 23.4932 23.2897 22.898C22.7716 22.3197 22.1072 21.8223 21.2967 21.4056C20.4861 20.9889 19.5627 20.7551 18.5265 20.7041C17.4234 20.6361 16.4331 20.7679 15.5557 21.0995C14.6783 21.4311 13.9471 21.8946 13.3621 22.4898C12.6602 23.1531 12.0794 23.9099 11.6198 24.7602C11.1602 25.6105 10.8886 26.6905 10.805 28C10.4875 28 10.1908 28 9.91504 28C9.63928 28 9.33426 28 9 28C9 28 9 27.9957 9 27.9872C9 27.9787 9 27.932 9 27.8469C9.06685 26.7755 9.24234 25.8146 9.52646 24.9643C9.8273 24.0969 10.2201 23.3316 10.7047 22.6684C11.1894 22.0051 11.7577 21.4184 12.4095 20.9082C13.0446 20.415 13.7465 19.9898 14.5153 19.6327C13.9471 19.2755 13.4373 18.7993 12.9861 18.2041C12.5348 17.6088 12.1964 16.9541 11.9708 16.2398C11.7451 15.5255 11.6407 14.7772 11.6574 13.9949C11.6741 13.1956 11.8579 12.4218 12.2089 11.6735C12.6602 10.6871 13.383 9.82823 14.3774 9.09694C15.3719 8.36565 16.5877 8 18.0251 8C19.429 8 20.6031 8.36139 21.5474 9.08418C22.4916 9.80697 23.1894 10.6701 23.6407 11.6735C23.8914 12.2517 24.0752 12.8724 24.1922 13.5357C24.3092 14.199 24.2925 14.8878 24.1421 15.602C23.9749 16.4354 23.649 17.2007 23.1643 17.898C22.6797 18.5952 22.1198 19.1735 21.4847 19.6327C22.2535 19.9898 22.9554 20.415 23.5905 20.9082C24.2089 21.4014 24.7563 21.9796 25.2326 22.6429C25.7089 23.3061 26.0975 24.0629 26.3983 24.9133C26.6992 25.7466 26.8997 26.6905 27 27.7449ZM13.5125 13.5102C13.312 14.5986 13.4248 15.5298 13.851 16.3036C14.2772 17.0774 14.7159 17.6599 15.1671 18.051C15.8691 18.5782 16.6838 18.8503 17.6114 18.8673C18.539 18.8844 19.3955 18.6633 20.1811 18.2041C20.883 17.8299 21.4554 17.2602 21.8983 16.4949C22.3412 15.7296 22.5042 14.8197 22.3872 13.7653C22.3203 13.2381 22.1699 12.7491 21.9359 12.2985C21.7019 11.8478 21.4178 11.4694 21.0836 11.1633C20.6323 10.7041 20.1017 10.3384 19.4916 10.0663C18.8816 9.79422 18.1253 9.71769 17.2228 9.83673C16.2702 9.95578 15.4471 10.3469 14.7535 11.0102C14.0599 11.6735 13.6462 12.5068 13.5125 13.5102Z" fill="#F7F7F7"/>
</svg>
