<svg width="36" height="36" viewBox="0 0 36 36" fill="none" xmlns="http://www.w3.org/2000/svg">
<path d="M9 0H1.28571C0.944722 0 0.617695 0.135459 0.376577 0.376577C0.135459 0.617695 0 0.944722 0 1.28571V9C0 9.34099 0.135459 9.66802 0.376577 9.90914C0.617695 10.1503 0.944722 10.2857 1.28571 10.2857H9C9.34099 10.2857 9.66802 10.1503 9.90914 9.90914C10.1503 9.66802 10.2857 9.34099 10.2857 9V1.28571C10.2857 0.944722 10.1503 0.617695 9.90914 0.376577C9.66802 0.135459 9.34099 0 9 0ZM21.8571 12.8571H14.1429C13.8019 12.8571 13.4748 12.9926 13.2337 13.2337C12.9926 13.4748 12.8571 13.8019 12.8571 14.1429V21.8571C12.8571 22.1981 12.9926 22.5252 13.2337 22.7663C13.4748 23.0074 13.8019 23.1429 14.1429 23.1429H21.8571C22.1981 23.1429 22.5252 23.0074 22.7663 22.7663C23.0074 22.5252 23.1429 22.1981 23.1429 21.8571V14.1429C23.1429 13.8019 23.0074 13.4748 22.7663 13.2337C22.5252 12.9926 22.1981 12.8571 21.8571 12.8571Z" fill="#AEAEAE"/>
<path d="M14.1428 0H21.8571C22.1981 0 22.5251 0.135459 22.7662 0.376577C23.0074 0.617695 23.1428 0.944722 23.1428 1.28571V9C23.1428 9.34099 23.0074 9.66802 22.7662 9.90914C22.5251 10.1503 22.1981 10.2857 21.8571 10.2857H14.1428C13.8018 10.2857 13.4748 10.1503 13.2337 9.90914C12.9926 9.66802 12.8571 9.34099 12.8571 9V1.28571C12.8571 0.944722 12.9926 0.617695 13.2337 0.376577C13.4748 0.135459 13.8018 0 14.1428 0ZM1.28568 12.8571H8.99997C9.34096 12.8571 9.66798 12.9926 9.9091 13.2337C10.1502 13.4748 10.2857 13.8019 10.2857 14.1429V21.8571C10.2857 22.1981 10.1502 22.5252 9.9091 22.7663C9.66798 23.0074 9.34096 23.1429 8.99997 23.1429H1.28568C0.944687 23.1429 0.617661 23.0074 0.376541 22.7663C0.135424 22.5252 -3.43323e-05 22.1981 -3.43323e-05 21.8571V14.1429C-3.43323e-05 13.8019 0.135424 13.4748 0.376541 13.2337C0.617661 12.9926 0.944687 12.8571 1.28568 12.8571Z" fill="#AEAEAE"/>
<path d="M34.7143 0H27C26.659 0 26.332 0.135459 26.0909 0.376577C25.8497 0.617695 25.7143 0.944722 25.7143 1.28571V9C25.7143 9.34099 25.8497 9.66802 26.0909 9.90914C26.332 10.1503 26.659 10.2857 27 10.2857H34.7143C35.0553 10.2857 35.3823 10.1503 35.6234 9.90914C35.8645 9.66802 36 9.34099 36 9V1.28571C36 0.944722 35.8645 0.617695 35.6234 0.376577C35.3823 0.135459 35.0553 0 34.7143 0Z" fill="#AEAEAE"/>
<path d="M34.7143 25.7142H27C26.659 25.7142 26.332 25.8497 26.0909 26.0908C25.8497 26.3319 25.7143 26.659 25.7143 26.9999V34.7142C25.7143 35.0552 25.8497 35.3823 26.0909 35.6234C26.332 35.8645 26.659 35.9999 27 35.9999H34.7143C35.0553 35.9999 35.3823 35.8645 35.6234 35.6234C35.8645 35.3823 36 35.0552 36 34.7142V26.9999C36 26.659 35.8645 26.3319 35.6234 26.0908C35.3823 25.8497 35.0553 25.7142 34.7143 25.7142Z" fill="#AEAEAE"/>
<path d="M34.7143 12.8572H27C26.659 12.8572 26.332 12.9926 26.0909 13.2338C25.8497 13.4749 25.7143 13.8019 25.7143 14.1429V21.8572C25.7143 22.1982 25.8497 22.5252 26.0909 22.7663C26.332 23.0074 26.659 23.1429 27 23.1429H34.7143C35.0553 23.1429 35.3823 23.0074 35.6234 22.7663C35.8645 22.5252 36 22.1982 36 21.8572V14.1429C36 13.8019 35.8645 13.4749 35.6234 13.2338C35.3823 12.9926 35.0553 12.8572 34.7143 12.8572Z" fill="#AEAEAE"/>
<path d="M21.8571 25.7142H14.1428C13.8018 25.7142 13.4748 25.8497 13.2337 26.0908C12.9926 26.3319 12.8571 26.659 12.8571 26.9999V34.7142C12.8571 35.0552 12.9926 35.3823 13.2337 35.6234C13.4748 35.8645 13.8018 35.9999 14.1428 35.9999H21.8571C22.1981 35.9999 22.5251 35.8645 22.7662 35.6234C23.0074 35.3823 23.1428 35.0552 23.1428 34.7142V26.9999C23.1428 26.659 23.0074 26.3319 22.7662 26.0908C22.5251 25.8497 22.1981 25.7142 21.8571 25.7142Z" fill="#AEAEAE"/>
<path d="M8.99993 25.7142H1.28564C0.944652 25.7142 0.617626 25.8497 0.376508 26.0908C0.135389 26.3319 -6.96182e-05 26.659 -6.96182e-05 26.9999V34.7142C-6.96182e-05 35.0552 0.135389 35.3823 0.376508 35.6234C0.617626 35.8645 0.944652 35.9999 1.28564 35.9999H8.99993C9.34092 35.9999 9.66795 35.8645 9.90907 35.6234C10.1502 35.3823 10.2856 35.0552 10.2856 34.7142V26.9999C10.2856 26.659 10.1502 26.3319 9.90907 26.0908C9.66795 25.8497 9.34092 25.7142 8.99993 25.7142Z" fill="#AEAEAE"/>
</svg>
