<svg width="36" height="36" viewBox="0 0 36 36" fill="none" xmlns="http://www.w3.org/2000/svg">
<g clip-path="url(#clip0_67_2011)">
<path d="M14.0573 5.85526C11.4595 6.75646 9.2192 8.46697 7.66539 10.7355C6.11158 13.0041 5.32621 15.7112 5.42462 18.4591C5.52304 21.207 6.50006 23.851 8.21218 26.0026C9.92429 28.1542 12.2813 29.7 14.9369 30.4131C17.0898 30.9686 19.3455 30.993 21.51 30.4842C23.4708 30.0437 25.2836 29.1016 26.7709 27.7501C28.3189 26.3005 29.4425 24.4564 30.0209 22.416C30.6497 20.1972 30.7615 17.8639 30.348 15.5951H18.258V20.6103H25.2597C25.1198 21.4101 24.8199 22.1736 24.378 22.8549C23.9362 23.5361 23.3614 24.1213 22.6881 24.5753C21.8331 25.1408 20.8693 25.5214 19.8586 25.6924C18.8449 25.8809 17.8051 25.8809 16.7914 25.6924C15.764 25.48 14.792 25.056 13.9375 24.4473C12.5647 23.4755 11.5339 22.095 10.9922 20.5026C10.4413 18.8804 10.4413 17.1218 10.9922 15.4996C11.3778 14.3626 12.0152 13.3273 12.8569 12.471C13.8201 11.4732 15.0395 10.7599 16.3814 10.4095C17.7233 10.059 19.1358 10.085 20.4639 10.4845C21.5014 10.803 22.4502 11.3594 23.2345 12.1095C24.024 11.3241 24.8121 10.5366 25.5989 9.74713C26.0052 9.3226 26.448 8.91838 26.8481 8.4837C25.6508 7.36951 24.2455 6.50253 22.7125 5.93245C19.921 4.91883 16.8665 4.89159 14.0573 5.85526Z" fill="white"/>
<path d="M14.0574 5.85527C16.8663 4.89095 19.9208 4.91747 22.7125 5.93043C24.2458 6.50438 25.6505 7.37554 26.8461 8.49386C26.4399 8.92855 26.0113 9.3348 25.5969 9.7573C24.8088 10.5441 24.0213 11.3281 23.2346 12.1095C22.4502 11.3594 21.5014 10.803 20.4639 10.4845C19.1363 10.0836 17.7238 10.0562 16.3816 10.4052C15.0393 10.7542 13.8191 11.4661 12.8549 12.4629C12.0132 13.3192 11.3758 14.3545 10.9902 15.4915L6.77942 12.2314C8.28662 9.2425 10.8963 6.95626 14.0574 5.85527Z" fill="#E33629"/>
<path d="M5.66215 15.4609C5.88847 14.3392 6.26422 13.253 6.77934 12.2312L10.9901 15.4995C10.4393 17.1217 10.4393 18.8803 10.9901 20.5025C9.5872 21.5858 8.18361 22.6745 6.77934 23.7687C5.4898 21.2018 5.09651 18.2772 5.66215 15.4609Z" fill="#F8BD00"/>
<path d="M18.258 15.593H30.348C30.7615 17.8618 30.6497 20.1952 30.021 22.414C29.4425 24.4543 28.3189 26.2984 26.771 27.748C25.412 26.6877 24.047 25.6355 22.6881 24.5752C23.3619 24.1208 23.9369 23.535 24.3788 22.853C24.8206 22.171 25.1203 21.4067 25.2597 20.6061H18.258C18.256 18.9365 18.258 17.2647 18.258 15.593Z" fill="#587DBD"/>
<path d="M6.77734 23.7687C8.18161 22.6854 9.58521 21.5966 10.9881 20.5024C11.5309 22.0953 12.5632 23.476 13.9375 24.4471C14.7947 25.053 15.7687 25.4736 16.7975 25.6821C17.8112 25.8706 18.851 25.8706 19.8647 25.6821C20.8754 25.511 21.8392 25.1305 22.6942 24.5649C24.0531 25.6253 25.4181 26.6774 26.777 27.7378C25.2899 29.09 23.4771 30.0328 21.5161 30.4739C19.3516 30.9827 17.0959 30.9583 14.943 30.4028C13.2402 29.9481 11.6497 29.1466 10.2711 28.0485C8.81197 26.8901 7.62022 25.4302 6.77734 23.7687Z" fill="#319F43"/>
</g>
<defs>
<clipPath id="clip0_67_2011">
<rect width="26" height="26" fill="white" transform="translate(5 5)"/>
</clipPath>
</defs>
</svg>
