<svg width="36" height="36" viewBox="0 0 36 36" fill="none" xmlns="http://www.w3.org/2000/svg">
<path d="M12.6 4.80005C8.29948 4.80005 4.79999 8.29954 4.79999 12.6V23.4C4.79999 27.7006 8.29948 31.2 12.6 31.2H23.4C27.7005 31.2 31.2 27.7006 31.2 23.4V12.6C31.2 8.29954 27.7005 4.80005 23.4 4.80005H12.6ZM12.6 6.00005H23.4C27.0519 6.00005 30 8.94816 30 12.6V23.4C30 27.0519 27.0519 30 23.4 30H12.6C8.9481 30 5.99999 27.0519 5.99999 23.4V12.6C5.99999 8.94816 8.9481 6.00005 12.6 6.00005ZM25.2 9.60005C24.8817 9.60005 24.5765 9.72648 24.3515 9.95152C24.1264 10.1766 24 10.4818 24 10.8C24 11.1183 24.1264 11.4235 24.3515 11.6486C24.5765 11.8736 24.8817 12 25.2 12C25.5182 12 25.8235 11.8736 26.0485 11.6486C26.2736 11.4235 26.4 11.1183 26.4 10.8C26.4 10.4818 26.2736 10.1766 26.0485 9.95152C25.8235 9.72648 25.5182 9.60005 25.2 9.60005ZM18 11.4C14.362 11.4 11.4 14.3621 11.4 18C11.4 21.638 14.362 24.6 18 24.6C21.638 24.6 24.6 21.638 24.6 18C24.6 14.3621 21.638 11.4 18 11.4ZM18 12.6C20.9894 12.6 23.4 15.0106 23.4 18C23.4 20.9895 20.9894 23.4 18 23.4C15.0105 23.4 12.6 20.9895 12.6 18C12.6 15.0106 15.0105 12.6 18 12.6Z" fill="#46B1F0" stroke="#46B1F0"/>
</svg>
