<svg width="36" height="36" viewBox="0 0 36 36" fill="none" xmlns="http://www.w3.org/2000/svg">
<rect x="35" y="1" width="34" height="34" rx="17" transform="rotate(90 35 1)" stroke="#46B1F0" stroke-width="2"/>
<path d="M10 17C9.44772 17 9 17.4477 9 18C9 18.5523 9.44772 19 10 19V17ZM26.7071 18.7071C27.0976 18.3166 27.0976 17.6834 26.7071 17.2929L20.3431 10.9289C19.9526 10.5384 19.3195 10.5384 18.9289 10.9289C18.5384 11.3195 18.5384 11.9526 18.9289 12.3431L24.5858 18L18.9289 23.6569C18.5384 24.0474 18.5384 24.6805 18.9289 25.0711C19.3195 25.4616 19.9526 25.4616 20.3431 25.0711L26.7071 18.7071ZM10 19H26V17H10V19Z" fill="#46B1F0"/>
</svg>
