<svg width="22" height="23" viewBox="0 0 22 23" fill="none" xmlns="http://www.w3.org/2000/svg">
<path d="M9.31888 22.3749C10.3732 22.3749 11.228 21.5202 11.228 20.4658C11.228 19.4115 10.3732 18.5568 9.31888 18.5568C8.26452 18.5568 7.40979 19.4115 7.40979 20.4658C7.40979 21.5202 8.26452 22.3749 9.31888 22.3749Z" fill="#F7F7F7"/>
<path d="M18.2281 22.3749C19.2824 22.3749 20.1371 21.5202 20.1371 20.4658C20.1371 19.4115 19.2824 18.5568 18.2281 18.5568C17.1737 18.5568 16.319 19.4115 16.319 20.4658C16.319 21.5202 17.1737 22.3749 18.2281 22.3749Z" fill="#F7F7F7"/>
<path d="M1.04626 1.375H3.59171L8.05134 15.375H18.228" stroke="#F7F7F7" stroke-width="1.5" stroke-linecap="round" stroke-linejoin="round"/>
<path d="M7.05858 12.1931L4.60986 4.55676H20.5278C20.6287 4.55664 20.7282 4.5805 20.818 4.62638C20.9079 4.67227 20.9855 4.73886 21.0446 4.82066C21.1036 4.90246 21.1424 4.99712 21.1577 5.09685C21.1729 5.19657 21.1643 5.2985 21.1324 5.39422L19.0107 11.7578C18.9686 11.8845 18.8876 11.9947 18.7793 12.0728C18.6711 12.1509 18.541 12.193 18.4075 12.1931H7.05858Z" stroke="#F7F7F7" stroke-width="1.5" stroke-linecap="round" stroke-linejoin="round"/>
</svg>
