<svg width="36" height="36" viewBox="0 0 36 36" fill="none" xmlns="http://www.w3.org/2000/svg">
<g clip-path="url(#clip0_67_2009)">
<path d="M31 18C31 10.8203 25.1797 5 18 5C10.8203 5 5 10.8203 5 18C5 24.4886 9.75394 29.8669 15.9688 30.8421V21.7578H12.668V18H15.9688V15.1359C15.9688 11.8778 17.9096 10.0781 20.8791 10.0781C22.3014 10.0781 23.7891 10.332 23.7891 10.332V13.5312H22.1498C20.5349 13.5312 20.0312 14.5334 20.0312 15.5615V18H23.6367L23.0604 21.7578H20.0312V30.8421C26.2461 29.8669 31 24.4887 31 18Z" fill="#1877F2"/>
<path d="M23.0604 21.7578L23.6367 18H20.0312V15.5615C20.0312 14.5333 20.5349 13.5312 22.1498 13.5312H23.7891V10.332C23.7891 10.332 22.3014 10.0781 20.879 10.0781C17.9096 10.0781 15.9688 11.8778 15.9688 15.1359V18H12.668V21.7578H15.9688V30.8421C16.6407 30.9474 17.3198 31.0002 18 31C18.6802 31.0002 19.3593 30.9474 20.0312 30.8421V21.7578H23.0604Z" fill="white"/>
</g>
<defs>
<clipPath id="clip0_67_2009">
<rect width="26" height="26" fill="white" transform="translate(5 5)"/>
</clipPath>
</defs>
</svg>
