<svg width="36" height="36" viewBox="0 0 36 36" fill="none" xmlns="http://www.w3.org/2000/svg">
<path d="M8.39999 5.396C6.75028 5.396 5.39999 6.74629 5.39999 8.396V27.596C5.39999 29.2457 6.75028 30.596 8.39999 30.596H18.4992C18.564 30.6067 18.6301 30.6067 18.6949 30.596H22.0992C22.164 30.6067 22.2301 30.6067 22.2949 30.596H27.6C29.2497 30.596 30.6 29.2457 30.6 27.596V8.396C30.6 6.74629 29.2497 5.396 27.6 5.396H8.39999ZM8.39999 6.596H27.6C28.6011 6.596 29.4 7.39491 29.4 8.396V27.596C29.4 28.5971 28.6011 29.396 27.6 29.396H22.8V20.996H25.0922L25.9324 16.796H22.8V15.596C22.8 15.2615 22.8318 15.2354 22.9441 15.1624C23.0564 15.0894 23.4035 14.996 24 14.996H25.8V11.6175L25.4578 11.4546C25.4578 11.4546 24.0796 10.796 22.2 10.796C20.85 10.796 19.7409 11.3339 19.0312 12.221C18.3215 13.1081 18 14.296 18 15.596V16.796H16.2V20.996H18V29.396H8.39999C7.3989 29.396 6.59999 28.5971 6.59999 27.596V8.396C6.59999 7.39491 7.3989 6.596 8.39999 6.596ZM22.2 11.996C23.4474 11.996 24.2324 12.2711 24.6 12.4167V13.796H24C23.3095 13.796 22.7562 13.8531 22.2902 14.1558C21.8243 14.4584 21.6 15.0329 21.6 15.596V17.996H24.4676L24.1078 19.796H21.6V29.396H19.2V19.796H17.4V17.996H19.2V15.596C19.2 14.496 19.4784 13.5839 19.9687 12.971C20.459 12.3581 21.15 11.996 22.2 11.996Z" fill="#46B1F0" stroke="#46B1F0"/>
</svg>
