<svg width="36" height="36" viewBox="0 0 36 36" fill="none" xmlns="http://www.w3.org/2000/svg">
<path d="M27.3563 16.5L27.3607 16.4682C27.3605 14.8072 26.8111 13.1937 25.7995 11.8828C24.788 10.5718 23.3718 9.63821 21.7751 9.22957C20.1783 8.82094 18.492 8.96059 16.9828 9.62643C15.4735 10.2923 14.2275 11.4463 13.4416 12.9062C10.8794 11.5549 7.7833 13.3201 7.61961 16.2343C6.55907 16.6243 5.64304 17.3335 4.9956 18.2658C4.34815 19.1982 4.0006 20.3087 4 21.4468C4.00023 22.9196 4.58059 24.3319 5.61344 25.3733C6.64629 26.4146 8.04708 26.9998 9.50775 27H26.7917C33.3656 26.9815 33.8952 17.2414 27.3572 16.5009L27.3563 16.5Z" fill="url(#paint0_linear_67_2070)"/>
<defs>
<linearGradient id="paint0_linear_67_2070" x1="5" y1="9" x2="32" y2="9" gradientUnits="userSpaceOnUse">
<stop stop-color="#92DBF7"/>
<stop offset="1" stop-color="#3E85F4"/>
</linearGradient>
</defs>
</svg>
