<svg width="98" height="16" viewBox="0 0 98 16" fill="none" xmlns="http://www.w3.org/2000/svg">
<path d="M13.8 0.999999V15H10.36V4.02H5.72V9.08C5.72 10.3867 5.52667 11.4867 5.14 12.38C4.76667 13.26 4.17333 13.92 3.36 14.36C2.54667 14.7867 1.49333 15 0.2 15V12.14C0.533333 12.14 0.826667 12.0733 1.08 11.94C1.34667 11.8067 1.56667 11.62 1.74 11.38C1.92667 11.1267 2.06667 10.82 2.16 10.46C2.25333 10.1 2.3 9.70667 2.3 9.28V0.999999H13.8ZM19.6506 8C19.6506 8.82667 19.8106 9.56 20.1306 10.2C20.464 10.8267 20.924 11.32 21.5106 11.68C22.1106 12.04 22.8106 12.22 23.6106 12.22C24.3973 12.22 25.084 12.04 25.6706 11.68C26.2706 11.32 26.7306 10.8267 27.0506 10.2C27.384 9.56 27.5506 8.82667 27.5506 8C27.5506 7.17333 27.3906 6.44667 27.0706 5.82C26.7506 5.18 26.2973 4.68 25.7106 4.32C25.124 3.96 24.424 3.78 23.6106 3.78C22.8106 3.78 22.1106 3.96 21.5106 4.32C20.924 4.68 20.464 5.18 20.1306 5.82C19.8106 6.44667 19.6506 7.17333 19.6506 8ZM16.0706 8C16.0706 6.92 16.2573 5.93333 16.6306 5.04C17.0173 4.14667 17.5506 3.37333 18.2306 2.72C18.9106 2.06667 19.7106 1.56667 20.6306 1.22C21.5506 0.86 22.544 0.68 23.6106 0.68C24.6906 0.68 25.684 0.86 26.5906 1.22C27.5106 1.56667 28.3106 2.06667 28.9906 2.72C29.6706 3.37333 30.1973 4.14667 30.5706 5.04C30.944 5.93333 31.1306 6.92 31.1306 8C31.1306 9.08 30.944 10.0733 30.5706 10.98C30.2106 11.8867 29.6906 12.6733 29.0106 13.34C28.344 14.0067 27.5506 14.5267 26.6306 14.9C25.7106 15.26 24.704 15.44 23.6106 15.44C22.504 15.44 21.4906 15.26 20.5706 14.9C19.6506 14.5267 18.8506 14.0067 18.1706 13.34C17.504 12.6733 16.984 11.8867 16.6106 10.98C16.2506 10.0733 16.0706 9.08 16.0706 8ZM33.4164 0.999999H41.7364V4.02H36.7964V15H33.4164V0.999999ZM45.1975 8C45.1975 8.82667 45.3575 9.56 45.6775 10.2C46.0108 10.8267 46.4708 11.32 47.0575 11.68C47.6575 12.04 48.3575 12.22 49.1575 12.22C49.9442 12.22 50.6308 12.04 51.2175 11.68C51.8175 11.32 52.2775 10.8267 52.5975 10.2C52.9308 9.56 53.0975 8.82667 53.0975 8C53.0975 7.17333 52.9375 6.44667 52.6175 5.82C52.2975 5.18 51.8442 4.68 51.2575 4.32C50.6708 3.96 49.9708 3.78 49.1575 3.78C48.3575 3.78 47.6575 3.96 47.0575 4.32C46.4708 4.68 46.0108 5.18 45.6775 5.82C45.3575 6.44667 45.1975 7.17333 45.1975 8ZM41.6175 8C41.6175 6.92 41.8042 5.93333 42.1775 5.04C42.5642 4.14667 43.0975 3.37333 43.7775 2.72C44.4575 2.06667 45.2575 1.56667 46.1775 1.22C47.0975 0.86 48.0908 0.68 49.1575 0.68C50.2375 0.68 51.2308 0.86 52.1375 1.22C53.0575 1.56667 53.8575 2.06667 54.5375 2.72C55.2175 3.37333 55.7442 4.14667 56.1175 5.04C56.4908 5.93333 56.6775 6.92 56.6775 8C56.6775 9.08 56.4908 10.0733 56.1175 10.98C55.7575 11.8867 55.2375 12.6733 54.5575 13.34C53.8908 14.0067 53.0975 14.5267 52.1775 14.9C51.2575 15.26 50.2508 15.44 49.1575 15.44C48.0508 15.44 47.0375 15.26 46.1175 14.9C45.1975 14.5267 44.3975 14.0067 43.7175 13.34C43.0508 12.6733 42.5308 11.8867 42.1575 10.98C41.7975 10.0733 41.6175 9.08 41.6175 8ZM56.8378 4.02V0.999999H67.9178V4.02H64.0578V15H60.6778V4.02H56.8378ZM82.2688 4.52L69.4488 15.7L69.5488 11.48L82.3688 0.3L82.2688 4.52ZM72.6888 0.999999V12.38L69.4488 15.7V0.999999H72.6888ZM82.3688 0.3V15H79.1088V3.74L82.3688 0.3ZM94.2277 4.02H88.8877V15H85.4477V0.999999H97.6677V15H94.2277V4.02Z" fill="#46B1F0"/>
</svg>
